<svg width="213.68mm" height="139.98mm" version="1.1" viewBox="0 0 757.15 495.97" xmlns="http://www.w3.org/2000/svg">
 <defs>
  <linearGradient id="a" x1="-2153.9" x2="-2153.9" y1="-1983.7" y2="-1041.7" gradientTransform="matrix(.7361 0 0 1.1184 971.67 1120)" gradientUnits="userSpaceOnUse">
   <stop stop-color="#7c9437" offset="0"/>
   <stop stop-color="#eff4e2" offset="1"/>
  </linearGradient>
 </defs>
 <g transform="translate(1012.9 489.91)">
  <path d="m-633.52-289.08c-4.2555-0.0136-8.5155 0-12.777 0.0312-127.91 0.89658-252.53 19.355-365.63 52.92a378.57 378.57 0 0 0-0.9259 18.506 378.57 378.57 0 0 0 0.9472 26.779 378.57 378.57 0 0 0 4.5606 37.566 378.57 378.57 0 0 0 8.2871 36.924 378.57 378.57 0 0 0 11.934 35.91 378.57 378.57 0 0 0 15.457 34.541 378.57 378.57 0 0 0 18.83 32.824 378.57 378.57 0 0 0 13.689 19.143h609.77a378.57 378.57 0 0 0 7.5468-9.9279 378.57 378.57 0 0 0 19.779-32.262 378.57 378.57 0 0 0 16.459-34.074 378.57 378.57 0 0 0 12.977-35.547 378.57 378.57 0 0 0 9.3634-36.666 378.57 378.57 0 0 0 5.6543-37.416 378.57 378.57 0 0 0 1.8905-37.795 378.57 378.57 0 0 0-0.60143-17.018c-116.53-35.116-245.29-54.153-377.21-54.44z" fill="url(#a)" fill-rule="evenodd"/>
  <g transform="translate(-3065.9 1490.7)">
   <path transform="translate(10572 368.09)" d="m-8140.9-2348.7a274.29 274.29 0 0 0-266.58 211.04c7.1369-1.3966 14.205-2.9209 21.4-4.2051 15.036-2.6835 30.198-5.1201 45.469-7.3067 15.271-2.1865 30.653-4.1238 46.129-5.8046 15.476-1.6809 31.048-3.1051 46.699-4.2715 15.651-1.1665 31.383-2.0735 47.18-2.7168 15.797-0.6434 31.658-1.0233 47.57-1.1348 16.954-0.1188 33.863 0.067 50.707 0.5527 16.844 0.4858 33.623 1.2711 50.32 2.3516s33.313 2.4557 49.826 4.1211 32.926 3.6208 49.219 5.8613c16.293 2.2406 32.467 4.7664 48.504 7.5723 10.201 1.7849 20.245 3.8763 30.33 5.8867a274.29 274.29 0 0 0-266.77-211.94z" fill="#69ab90"/>
   <path transform="translate(10572 368.09)" d="m-8140.5-2258.2a184.16 184.16 0 0 0-165.9 104.74c3.9985-0.4699 7.9455-1.0683 11.957-1.5039 15.476-1.6809 31.048-3.1051 46.699-4.2715 15.651-1.1665 31.383-2.0735 47.18-2.7168 15.797-0.6434 31.658-1.0233 47.57-1.1348 16.954-0.1188 33.863 0.067 50.707 0.5527 16.844 0.4858 33.623 1.2711 50.32 2.3516s33.313 2.4557 49.826 4.1211c9.3701 0.945 18.626 2.1953 27.928 3.3262a184.16 184.16 0 0 0-166.29-105.46z" fill="#4a856d"/>
   <path transform="translate(10572 368.09)" d="m-8140.9-2237c-57.78 0.068-111.19 30.788-140.3 80.699 42.151-4.1659 84.969-6.4492 128.16-6.752 51.484-0.3609 102.54 2.0951 152.66 7.2168-29.034-50.162-82.569-81.082-140.53-81.164z" fill="#d9ccb5"/>
   <path transform="translate(10572 368.09)" d="m-8139.6-2326.4c-68.213-0.4078-132.43 25.777-181.27 74.619-31.322 31.322-53.165 68.409-64.869 109.85 21.087-3.7573 42.424-7.0203 63.961-9.7968 0.1062-0.2386 0.2051-0.474 0.3125-0.7129 10.523-23.415 22.717-41.107 40.772-59.162 29.234-29.234 64.842-47.747 106.23-55.229 14.678-2.6535 47.206-2.9306 64.086-0.5429 14.755 2.0871 19.279 1.4609 27.205-3.7891 11.038-7.311 15.491-22.356 10.088-34.086-5.7671-12.52-13.568-16.585-37.066-19.334-9.8746-1.1551-19.702-1.7562-29.447-1.8145zm209.14 141.75c-15.595-0.072-28.373 12.42-28.373 27.73 0 2.0809 0.2081 4.0855 0.5879 6.0059 17.56 2.3451 34.986 5.0152 52.252 8.0156 0.3927-0.7733 0.7686-1.5899 1.1309-2.457 7.6967-18.421-5.8421-39.204-25.598-39.295z" fill="#e1eee9" fill-rule="evenodd"/>
   <path d="m2566.6-1883.9c-3.0097 3.1329-6.9452 2.2975-14.708-2.4482-4.0467-2.2446-5.5995-3.6343-9.6847-5.7832l-6.0229-3.1961-2.0305 3.9932-2.0327 3.9906-3.4678-4.969c-8.9934-12.89-18.056-26.474-17.742-26.592 4.2273-0.3503 19.763-1.3532 37.471-2.7026 0 0-1.0853 2.1672-2.2943 4.5888l-2.0055 4.2775 6.5539 3.5215c3.6047 1.9372 9.4209 5.7407 12.927 8.4524 1.0018 0.7747 1.7262 1.4006 2.4531 2.0301 4.5629 4.4076 4.9708 7.6508 2.557 12.032-0.6314 1.1465-1.2782 2.081-1.9728 2.8041z" fill="#fff"/>
   <path transform="matrix(1.9024 0 0 1.9024 3412 -1843.7)" d="m-432.68-16.955c-0.92625 0.11186-1.7636 0.61843-2.5957 1.4668-2.5338 2.583-1.7893 5.0501 3.1855 10.545 2.4906 2.751 6.0466 6.7358 7.9004 8.8555 3.7538 4.2926 5.5909 4.8261 8.1582 2.3672 2.8579-2.737 2.1581-5.0574-3.6914-12.246-6.6046-8.1165-10.178-11.324-12.957-10.988z" fill="#fff"/>
  </g>
  <path d="m-1011-254.39a378.57 378.57 0 0 0-0.9141 18.264c113.1-33.564 237.73-52.023 365.63-52.92 136.38-0.95605 269.7 18.16 389.99 54.408a378.57 378.57 0 0 0-0.34565-9.7598 378.57 378.57 0 0 0-1.0644-8.7656c-120.38-35.545-253.06-54.097-388.7-53.147-127.3 0.89224-251.38 18.941-364.6 51.92z" color="#000000" color-rendering="auto" fill="#4a856d" image-rendering="auto" shape-rendering="auto" solid-color="#000000" style="block-progression:tb;isolation:auto;mix-blend-mode:normal;text-decoration-color:#000000;text-decoration-line:none;text-decoration-style:solid;text-indent:0;text-transform:none;white-space:normal"/>
  <g fill="#69ab90">
   <path d="m-596.16-130.58h-14.32v72.537h14.32v-30.165h14.789v30.165h14.32v-72.537h-14.32v29.93h-14.789v-29.93z"/>
   <path d="m-556.38-130.58v72.537h39.203v-12.442h-24.883v-17.723h19.719v-12.442h-19.719v-17.489h24.883v-12.442h-39.203z"/>
   <path d="m-472.89-58.044v-12.442h-21.714v-60.095h-14.32v72.537h36.034z"/>
   <path d="m-430.48-58.044v-12.442h-21.714v-60.095h-14.32v72.537h36.034z"/>
   <path d="m-403.8-69.781c-2.2301 0-3.9907-0.93899-4.9297-2.3475-1.2911-1.878-1.6432-4.8123-1.6432-7.2772v-29.696c0-2.5822 0.23475-5.2818 1.5259-7.2772 0.93899-1.4085 2.817-2.4648 5.0471-2.4648h1.4085c2.3475 0 4.2254 0.93899 5.1644 2.3475 1.2911 1.9954 1.4085 4.8123 1.4085 7.3946v29.696c0 2.4648-0.23475 5.3992-1.5259 7.2772-0.93899 1.4085-2.6996 2.3475-5.0471 2.3475h-1.4085zm-20.893-11.385c0 5.7513 0.58687 12.089 4.1081 16.784 3.4038 4.5776 9.1552 7.0424 17.489 7.0424 8.3335 0 14.085-2.6996 17.489-7.2772 3.5212-4.695 4.2255-11.033 4.2255-16.667v-26.174c0-5.7513-0.70425-12.089-4.2255-16.784-3.4038-4.5776-9.1552-6.925-17.489-6.925-8.3335 0-13.967 2.6996-17.371 7.2772-3.5212 4.695-4.2254 10.916-4.2254 16.667v26.057z"/>
  </g>
  <g fill="#69ab90">
   <path d="m-613.41-201.17c0 5.7513 1.1737 9.8594 3.8733 13.498 4.1081 5.2818 11.268 8.3335 16.902 11.62 1.7606 0.93899 3.1691 1.878 4.2254 3.0517 0.93899 1.2911 1.6432 2.6996 1.6432 4.5776 0.11738 2.5822-0.58686 4.8123-1.9954 6.2208-1.4085 1.5259-3.5212 2.3475-6.3382 2.3475h-1.4085c-4.5776 0-8.6856-1.0564-13.967-2.6996l-2.1127 11.855c4.4602 1.878 11.503 3.5212 17.606 3.5212 7.5119-0.11737 14.789-2.1127 18.545-7.3945 3.1691-4.3428 3.9907-9.5073 3.9907-14.554 0-5.7513-1.4085-9.6246-3.8733-12.559-1.1737-1.4085-2.5822-2.5822-4.3428-3.6386-4.695-3.0517-10.564-4.9297-14.906-7.9814-2.3475-1.7606-3.8733-3.8733-3.8733-6.925 0-2.6996 0.58687-4.5776 1.7606-5.8687 1.2911-1.4085 3.1691-1.9954 5.8687-1.9954 4.695 0 8.6857 0.93899 13.146 2.1127l2.1127-11.62c-5.1644-1.9954-10.798-3.0517-16.432-2.9343-6.925 0.11737-12.442 2.2301-15.963 6.3382-2.6996 3.0517-4.4602 7.7467-4.4602 13.028z"/>
   <path d="m-536-160.79 2.3475 13.146h14.202v-3.0517l-15.141-69.485h-18.076l-15.024 68.898v3.6386h13.85l2.3475-13.146h15.493zm-7.7467-43.663 5.5166 31.221h-11.033l5.5166-31.221z"/>
   <path d="m-474.6-216.55v-3.6386h-12.676l-9.8594 31.574-9.9768-31.574h-13.381v3.756l16.198 44.367v24.414h14.437v-25.118l15.259-43.78z"/>
   <path d="m-471.74-201.17c0 5.7513 1.1737 9.8594 3.8733 13.498 4.1081 5.2818 11.268 8.3335 16.902 11.62 1.7606 0.93899 3.1691 1.878 4.2255 3.0517 0.93899 1.2911 1.6432 2.6996 1.6432 4.5776 0.11737 2.5822-0.58687 4.8123-1.9954 6.2208-1.4085 1.5259-3.5212 2.3475-6.3382 2.3475h-1.4085c-4.5776 0-8.6856-1.0564-13.967-2.6996l-2.1127 11.855c4.4602 1.878 11.503 3.5212 17.606 3.5212 7.5119-0.11737 14.789-2.1127 18.545-7.3945 3.1691-4.3428 3.9907-9.5073 3.9907-14.554 0-5.7513-1.4085-9.6246-3.8733-12.559-1.1737-1.4085-2.5822-2.5822-4.3428-3.6386-4.695-3.0517-10.564-4.9297-14.906-7.9814-2.3475-1.7606-3.8733-3.8733-3.8733-6.925 0-2.6996 0.58687-4.5776 1.7606-5.8687 1.2911-1.4085 3.1691-1.9954 5.8687-1.9954 4.695 0 8.6857 0.93899 13.146 2.1127l2.1127-11.62c-5.1644-1.9954-10.798-3.0517-16.432-2.9343-6.925 0.11737-12.442 2.2301-15.963 6.3382-2.6996 3.0517-4.4602 7.7467-4.4602 13.028z"/>
  </g>
  <path d="m-642.99-219.72h8.3121v161.84h-8.3121z" fill="#4a856d"/>
  <g fill="#4a856d">
   <path d="m-887.97-91.967v12.157h70.466v-23.864h-34.895l21.162-34.895c8.5549-13.958 16.209-27.466 16.209-44.351 0-13.283-4.2775-22.963-11.932-28.817-6.5288-5.178-15.759-7.6544-27.241-7.8795-10.356-0.22513-18.01 1.801-27.916 5.8534l4.0523 22.063c8.5549-2.2513 12.382-4.0523 21.387-4.0523 5.178 0 10.131 1.801 12.832 6.7539 1.5759 2.7016 2.2513 6.0785 2.0262 9.9057-0.22513 10.581-5.8534 22.288-11.482 31.068l-34.67 56.057z"/>
   <path d="m-770.65-107.05h-26.34v27.241h26.34v-27.241z"/>
   <path d="m-750.43-124.39c0 11.031 1.3508 23.188 8.1047 32.194 6.5288 8.7801 16.434 13.508 32.419 13.508 15.984 0 25.89-5.178 32.419-13.958 6.7539-9.0052 8.1047-21.162 8.1047-31.968v-49.754c0-11.031-1.3508-23.188-8.1047-32.194-6.5288-8.7801-16.434-13.283-32.419-13.283-15.984 0-25.89 4.9529-32.419 13.733-6.7539 9.0052-8.1047 21.162-8.1047 32.194v49.529zm39.848 21.838c-4.2775 0-7.4293-1.801-9.2303-4.5026-2.4764-3.6021-3.1518-9.2303-3.1518-13.958v-56.508c0-4.9529 0.67539-10.356 3.1518-14.183 1.801-2.7016 4.9528-4.5026 9.2303-4.5026h1.3508c4.2775 0 7.4293 1.801 9.2303 4.5026 2.4764 3.8272 3.1518 9.2303 3.1518 14.183v56.508c0 4.7277-0.67539 10.356-3.1518 13.958-1.801 2.7016-4.9529 4.5026-9.2303 4.5026h-1.3508z"/>
  </g>
 </g>
</svg>
