<?xml version="1.0" encoding="UTF-8" standalone="no"?>
<svg xmlns:rdf="http://www.w3.org/1999/02/22-rdf-syntax-ns#" xmlns="http://www.w3.org/2000/svg" height="7.1673mm" width="7.2061mm" version="1.1" xmlns:cc="http://creativecommons.org/ns#" xmlns:dc="http://purl.org/dc/elements/1.1/" viewBox="0 0 25.5334 25.395792">
 <g transform="translate(177.77 -519.66)">
  <path d="m-165 519.66c-2.6196 0-4.9735 0.71508-7.2323 2.1971-0.9279 0.60864-2.7283 2.4092-3.337 3.337-1.4712 2.2424-2.1972 4.6154-2.1972 7.1819 0 2.5788 0.7141 4.9223 2.1797 7.1552 0.6309 0.96123 2.4192 2.7501 3.3802 3.3808 1.4791 0.97083 3.2841 1.71 4.9268 2.0176 1.0838 0.20297 3.9457 0.15209 5.0159-0.0894 2.4596-0.55481 4.4742-1.6723 6.29-3.4887 2.4847-2.4856 3.7408-5.4989 3.7408-8.9756 0-3.4682-1.2629-6.498-3.7405-8.9756-2.4919-2.4919-5.5045-3.7404-9.0264-3.7404z" fill="#7db69f"/>
  <path d="m-165.02 528.24c-0.8699 0-1.6514 0.23746-2.4016 0.72959-0.3081 0.20212-0.9061 0.80004-1.1081 1.1081-0.4886 0.74466-0.7298 1.5326-0.7298 2.3849 0 0.85636 0.2371 1.6346 0.724 2.3761 0.2094 0.3192 0.8033 0.91326 1.1224 1.1227 0.4911 0.32239 1.0906 0.56785 1.6361 0.67001 0.3598 0.0673 1.3102 0.0504 1.6658-0.0297 0.8167-0.18424 1.4856-0.55532 2.0886-1.1585 0.8251-0.8254 1.2423-1.826 1.2423-2.9806 0-1.1517-0.4195-2.1578-1.2421-2.9806-0.8277-0.82751-1.8279-1.2421-2.9976-1.2421z" fill="#4a826c"/>
  <path d="m-2404.4 671.18c-3.2399-0.0194-6.3107 1.2365-8.6289 3.5547 0 0.002 0 0.004-0.01 0.006-1.9541 1.9569-3.1473 4.4242-3.4687 7.1758-0.1336 1.143-0.1324 1.8177 0.2265 2.3984 0.3941 0.63745 0.9181 0.94336 1.6758 0.94336 0.2981 0 0.6535-0.10695 0.916-0.24414 0.2434-0.12713 0.6126-0.46272 0.7539-0.69141 0.065-0.10555 0.202-0.39493 0.2403-0.56641 0.053-0.23546 0.061-0.41065 0.084-0.74218 0.088-1.2626 0.2865-2.0912 0.7089-3.0312 0.4385-0.97557 0.9254-1.6871 1.6778-2.4395 1.2078-1.2078 2.6659-1.965 4.3828-2.2754 0.3293-0.0595 0.7416-0.0624 1.2617-0.0684s1.0247-0.004 1.3828 0.0469c0.3661 0.0518 0.6053 0.0832 0.9219 0.0391 0.2645-0.0368 0.6003-0.19398 0.791-0.32031 0.8224-0.54467 1.1248-1.5151 0.707-2.4219a0.6513 0.6513 0 0 1 0 -0.002c-0.1439-0.31257-0.5075-0.75154-0.8496-0.92969-0.4136-0.21541-0.8031-0.27857-1.3769-0.3457-0.4667-0.0546-0.9332-0.0832-1.3985-0.0859zm9.3692 6.3516c-1.074-0.004-1.9883 0.87522-1.9883 1.957 0 1.3647 1.5564 2.3925 2.7988 1.8066 0.3338-0.1574 0.8593-0.69555 0.9922-1.0137 0.5288-1.2658-0.423-2.7422-1.8008-2.75zm-1.291 9.6602c-0.5015 0.009-1.1313 0.39448-1.4707 0.78906-0.7801 0.90716-0.9293 1.0694-1.2911 1.3887-1.0664 0.94113-2.4514 1.6118-3.957 1.9062-0.394 0.0771-0.8958 0.072-1.4824 0.0664-0.5866-0.006-1.0998-0.0118-1.4941-0.0957l0.1328 0.0137a0.6513 0.6513 0 0 1 -0.1328 -0.0137c-1.5797-0.33594-2.8091-0.96601-4.0195-2.0606-0.3529-0.31903-0.5674-0.50965-0.8692-0.67969-0.2288-0.12895-0.689-0.22851-0.8945-0.22851-1.03 0-1.951 0.94359-1.9551 1.9688v0.002a0.6513 0.6513 0 0 1 0 0.002c0 0.26313 0.1216 0.80286 0.3028 1.0781 0.2346 0.35637 0.5009 0.59192 0.957 0.99805 1.8218 1.622 4.2177 2.6942 6.6543 2.9746 0.7641 0.0879 1.9155 0.0871 2.6895 0.002 2.1894-0.23969 4.2945-1.0791 6.0489-2.4082 0.7055-0.53445 1.6855-1.491 2.2129-2.1816 0.2682-0.35126 0.4557-0.64063 0.5664-1.0176 0.098-0.33319 0.076-0.788-0.01-1.0938-0.1165-0.42605-0.279-0.59899-0.5546-0.85157-0.2646-0.24237-0.4858-0.39738-0.8809-0.49218-0.1798-0.0432-0.3602-0.0694-0.5527-0.0664z" fill-rule="evenodd" transform="matrix(.82404 0 0 .82404 1816.1 -30.489)" fill="#f1f7f5"/>
 </g>
</svg>
